<?xml version="1.0" encoding="UTF-8"?>
<svg id="Layer_2" data-name="Layer 2" xmlns="http://www.w3.org/2000/svg" viewBox="0 0 538.01 538.4">
  <g id="Layer_1-2" data-name="Layer 1">
    <g id="cA6Lab.tif">
      <g>
        <path d="M216.07,158.56c.16.16.06,1.22-.43,1.55-.83.56-7.87.51-7.38,3.86.39,2.68,3.2,1.78,4.87,2.15.94.2,2.02,1.31,3.08,1.75,3.28,1.34,7.08.69,10.58.31.9-.1,2.43-.86,3.07-.73,1.9.38.89,2.22-.44,2.91-2,1.04-3.18.07-5.19.04-4.2-.07-8.85.57-12.74.47-3.29-.08-3.07-2.88-4.95-3.44-3.89-1.17-7.5,5.55-4.32,5.63,1.31.03,2.61-2.01,5.2-1.23,1.52.46,1.01,1.89,0,2.57-2.02,1.34-6.89,2.59-9.35,3.71-17.86,8.15-33.74,19.76-50.85,28.66-5.22,2.72-10.79,3.98-15.65,6.31-1.84.88-3.23,2.44-4.96,3.39-9.73,5.35-24.87,4.57-34.21,9.72-2.86,1.58-4.53,4.63-8.25,6.69-10.76,5.95-31.95,18.49-36.84,29.92-2.47,5.76-1.26,4.58,3.81,5.59,1.47-.14,2.78-2.99,3.18-3.09.49-.12,4.18-.13,4.67,0,.53.13.83,2.13,1.4,2.66.54.5,2.5.37,1.45,2.12-.23.39-7.37,3.83-8.17,3.93-2.12.29-2.05-.75-3.5-1.14-2.89-.78-1.79,1.99-3.65,2.78-1,.43-2.46-.77-3.51.41-.6.67-.69,2.69-.24,3.33,1.46,2.1,7.79-1.73,9.69-1.73,1.44,0,5.52,1.27,7.13,1.61,1.05.23,2.76.12,2.31-1.44-.21-.73-4.24-.76-3.73-2.41.93-3.02,4.9-.75,5.96-1.51.88-.63-.43-4.15,2.18-5.32,1.54-.69,1.81,1.52,4.14,1.11,1.37-.24,3.99-4.07,6.39-4.65,1.66-.4,2.4,1.33,4.08.28.36-.23,2.24-3.69,2.96-4.62.6-.77,3.61-4.41,4.21-4.52.19-.04,3.46.3,3.94.38,1.86.32.34,2.76-.41,3.97-1.09,1.75-4.44,4.74-4.93,6.5-.16.58.01,1.35.48,1.34,1.46-.05,6.42-9.59,8.86-10.93,1.98-1.09,3.04,1.8,2.59,3.47-.26.97-1.61,3.04-2.26,3.91-1.02,1.35-9.81,9.69-5.23,10.59,2.49.49,3.58-1.68,5.81-2.09s8.62.68,10.38,2.05c1.79,1.39-1.49,2.57-2.63,2.67-1.36.11-2.52-.95-2.98-.84-.82.19-.95,1.93-1.21,2.1-.96.61-4.64-1.04-4.35,1.6.1.94,4.22,3.01,5.18,3.2,1.5.3,3.07-.05,4.63.2,2.22.37,3.47,2.49,5.71,2.02,1.32-.28,6.58-4.05,5.19-5.88-.17-.22-4.47-2.45-2.01-2.4,5.6.1,12.39,2.43,17.76,3.78,2.41.61,5.36.56,7.91,1.75.97.46,1.59,2.23,2.9,2.41,2.88.4,5.61-2.96,7.65-3.36,1.71-.33,11.1,1.41,11.41,3.18.08.43-.28.83-.6,1.07-1.8,1.33-3.24-.62-4.89-.88-1.03-.16-4.69-.2-5.59.06-.28.08-4.23,3.49-4.51,3.84-2.37,3.1,1.77,1.83,3.1,1.78,1.54-.06,4.31-.24,5.69.02,1.08.2,1.56,1.18,3.09,1.32,6.38.59,7.17-5.5,10.76-6.41,1.35-.34,7.32.28,5.72,2-1.27-.13-7.9,2.07-7.9,2.86,0,1.11,2.56,1.01,3.19,1.2,2.4.72-.28,3.77,1.46,4.27,1.22.35,3.37-2.26,4.36-.87,1.22,1.71-4.31,2.79-.91,4.41,1.03-.96,5.62-1.21,5.95-1.98.54-1.24-.84-1.13-1.09-1.52-.96-1.5.68-2.59.58-3.23-.1-.7-1.68-1.75-1.61-2.64.12-1.5,2.93-2.26,3.35-3.68.47-1.62-.14-4.22.11-6.04.13-.97,1.72-1.75-.04-2.65-.43-.22-2,.38-1.73-.88.13-.61,4.71-4.13,5.56-4.55,1.39-.68,6.06-2.97,7.2-3.34,1.93-.64,4.12.17,5.82-.33,1.18-.35,2.18-2.76,3.62-2.99,3.21-.51.99,3.38,3.14,3.9.45.11,8.1-1.96,8.92-2.35,3.84-1.8,9.21-11.11,12.54-11.62,2.67-.41,4.91-.43,7.54-1.68s5.72-4.12,8.35-5.73c2.44-.72,4.74,2.89,7.41,2.98,1.3.04,1.92-.91,3.05-1.28,1.54-.51,4.18.07,3.54-2.23-.4-1.44-2.82-2.02-.9-4.36,1.58-1.92,2.2.38,3.26,1.55.36.4,1.32.54,1.37.88.14.91-1.32,1.98-.91,2.38.13.13,2.79-.97,3.49-1.12,4.02-.86,7.28.26,10.32-.22.95-.15,2.28-1.2,2.67-1.17.83.06,1.73,2.2,2.28,2.54,1.24.76,3.67-.24,5.18-.46,1.09-.16,2.35.22,3.42-.09.82-.24,1.42-1.63,2.46-1.9,2.46-.64,2,5.89,2.33,7.39s1.8,3.33,2.32,4.71c2.18,5.81,3.71,12.7,6.44,18.16,3.28,6.56,9,11.15,13.99,16.32.16,1.11-.72.68-1.3.41-3.46-1.63-9-10.26-11.14-1.88-.6,2.34.82,4.5,3.1,5.08,1.16.3,5.62-.1,5.82.11.68.7-1.53,5.03-2.48,5.21-1.61.3-5.39-4.42-8.22-2.95-3.4,1.77-1.21,6.13,2.53,5.64,1.71-.22,3.36-2.68,4.54-.09,2.62,5.76-1.55,4.14-3.42,7.33-2.55,4.34,4.41,2.48,4.82,4.92.13.8-5.12,4.49-1.29,5.68,2.64.83,6.24-2.06,6.85-4.62.73-3.11.93-7.29,1.6-10.26.19-.85,1.04-1.39,1.21-2.3.27-1.49-.77-5.41,2.21-3.94,2.42,1.19-1.59,4.72-.79,7.39.68,2.28,4.57-.01,4.31,2.69-.35,3.61-4.26,1.28-5.09,2.42-1.51,2.08,3.1,4.94,4.89,4.84,1.61-.09,2.18-4.45,5.47-2.83,4.25,2.1-4.91,6.37-5.48,7.69-.42.96-.1,2.06-.42,3.09-.46,1.48-5.18,4.23-1.9,5.8,2.47,1.18,4.35-1.11,5.79-1.01.89.07,2.59,1.33,2.37,2.36-.09.43-5.44,5.89-6.09,6.2-2.05.98-6.06,1.71-8.2,2.78-4.49,2.22-13.19,10.83-16.66,14.74s2.31,4.07,1.95,6.58c-.21,1.45-11.83,11.67-13.68,13.98-1.16,1.44-2.02,3.76-3.13,4.78-.93.86-2.88,1.44-3.84,2.19-4.24,3.34-7.76,9.33-11.32,13.39-2.36,2.69-4.32,2.88-5.41,7.34-.85,3.47,1.88,3.7,4.32,2.12,3.31-2.16,12.14-11.94,15.38-15.37,1.17-1.24,16.98-19.92,17.78-18.89.47.6-1.43,3.06-1.83,3.65-6.78,9.94-16.1,17.6-23.38,27.13-2.23,2.92-7.31,9.33-8.78,12.31-.63,1.28-1.37,3.29.82,3.05,1.35-.15,2.48-2.69,3.63-3.02,1.29-.37,2.63.8,3.62.16,6.5-6.97,13.69-13.37,19.08-21.35,3.86-5.71,8.13-11.4,11.87-17.12,5.05-7.73-2.51-4.92-3.26-5.68-.22-.23.9-5.32.46-6.35,2.55-3.75-.73-4.55,3.54-7.44,6.67-4.5,13.74-8.66,20.12-13.7.84-.66,3.51-3.71,4.21-3.69,1.08.03.1,1.64-.14,2.05-2.57,4.45-10.66,11.23-14.81,14.62-3.22,2.63-7.5,4.14-9.1,8.48-.85,2.31,1.37,2.68,3.07,1.95.12-.05.17-.58.43-.74,8.15-4.68,14.92-14.3,21.62-20.9,3.95-2.07.84,2.82-.43,4.4-3.67,4.56-14.41,12.41-15.71,17.67-.28,1.14-.29,1.8.94,1.38,6.29-7.21,14.51-13.07,19.54-21.32,2.88-4.73.53-4.29,1.03-7.28.25-1.48,2.58-3.97,3.1-5.72,1.25-4.25.07-14.79-1.08-19.32-.34-1.33-2.32-4.38-1.69-5.39.86-1.36,1.7-1.12,2.42.26.46.88,1.65,6.42,1.88,7.78.79,4.7,1.74,15.17.45,19.52-.54,1.84-1.82,3.26-2.39,5.52-6,23.79-11.53,52.14-21.21,74.55-1.52,3.52-3.83,5.73-5.37,8.69-1.51,2.91-2.05,6.96-3.2,9.98-7.18,18.82-17.14,39.51-26.5,57.4-1.23,2.35-7.21,13.08-9.17,13.68-3.43,1.04-3.84-4.51-7.78.56-3.36,4.32-6.08,10.15-9.69,14.47-2.16,2.59-5.21,4.89-7.48,7.46-2.08,2.35-3.88,7.09-7.83,6.9-5.85-.27.52-10.75.49-13.36-.02-1.63-1.7-1.66-2.73-.54-2.16,2.33-5.04,10.67-9.22,10.1-3.81-.52-1.1-6.41-.8-8.26.36-2.18.27-4.81.65-6.81.52-2.73,2.27-5.38,2.97-8.06-1.19-5.04-4.34,2.35-5.91,3.8-.32.3-4.4,3.01-4.74,3.16-5.13,2.26-4.51-7.63-4.3-10.45.16-2.14,1.78-6.77,1.27-8.27-.77-2.29-4.43.92-6.1.42-2.8-.84-2.8-5.4-2.42-7.75.5-3.13,4.83-10.82,4.14-12.87-.58-1.72-3.48-.02-4.6.12-5.07.63-5.09-5.3-4.01-8.85.5-1.64,4.91-7.66,3.34-8.64-1.03-.64-3.37,1.73-5.31-1.93-1.56-2.95-.31-8.19.75-11.29.59-1.75,3.58-6.53,3.57-7.69,0-1.96-2.77-1.65-3.58-2.41-2.33-2.19,1.57-8.5,1.5-11.16-.1-3.92-3.58-3.71-1.36-9.79.82-2.22,5.37-8.38,5.34-10.04-.04-1.97-3.21-2.11-4.15-2.86-1.1-.87-1.26-2.85-1.12-4.17.16-1.56,2.17-5.13,3.07-6.59,1.03-1.65,3.84-4.47,4.21-5.91.49-1.9-.61-4.66-.14-7.15.38-2.03,2.95-4.57,2.84-6.62-.11-2.18-2.45-3.5-2.84-5.01-.35-1.37.17-2.91-.2-4.19-.2-.7-2.25-3.46-2.76-4.71-1.91-4.65-7.31-17.42-6.77-21.71.15-1.23.95-2.01.76-3.43-.24-1.85-2.66-4.22-3-7.14-.83-7.26,3.23-23.15-.87-29-2.15-3.06-5.41-1.49-8.43-.52-2.31.74-4.79,2.17-7.28,2.83-6.45,1.69-13.38,1.8-19.76,3.08-5.53,1.11-21.49,1.11-27.03,0-6.35-1.27-12.86-2.54-19.43-2.97-7.54-.49-11.7-.95-17.56,3.96-8.26,6.91-14.1,17.4-22.19,24.38-2.4,2.07-10.79,9.14-11.84,2.61-.72-4.48,3.11-7.67,2.89-9.65-.26-2.39-4.18-.94-5.51-.38-6.91,2.87-8.51,6.2-17.36,4.53-3.32-.63-3.2-3.13-4.88-3.46-3.26-.66-6,2.25-9.56,1.21-.23-.07-3.27-2.27-3.56-2.58-2.42-2.55-2.86-5.62-7.72-6.38-1.51-.24-2.85.92-4.17-.63-1.99-2.32,1-5-.03-7.44-1.18-2.79-6.12-1.35-7.88-3.99s2.31-4.5-.21-6.81c-2.07-1.9-6.62.05-7.07-3.07-.33-2.33,2.77-4.03,2.64-6.09-.15-2.51-3.89-2.21-3.42-5.63.15-1.06,1.95-4.35,2.62-5.32.99-1.43,3.02-2.95,3.7-4.21.95-1.76.24-3.25,1.04-4.67.58-1.03,10.81-8.41,12.85-10.32,1.86-1.74,6.84-8.25,8.13-8.66,2.86-.91,1.31.55,1.49,1.35.61,2.58,2.61.73,3.8.43,1.26-.31,6.57-1.6,5.77.94-.46,1.46-13.57,4.89-14,5.56-.51.8.24,1.79,1.4,1.66,1.67-.2,6.76-2.1,8.67-2.79,1.62-.58,9.3-3.6,9.88-4.62,1.11-1.96-.3-3.19,3.56-3.9,4.9-.91,8.27-1.23,12.25-4.89,1.35-1.24,3.77-4.39.47-4.4-2.41,0-7.97,4.06-11.2,4.66-2.53.46-5.1-.12-7.6.3-2.25.38-5.02,2.33-7.14,2.96-2.31.69,1.39-2.3,2.13-2.71,8.14-4.45,22.33-5.63,31.91-9.38,9.05-3.53,15.84-10.78,25.48-14.05,10.79-3.66,22.54-5.24,33.25-9.36,6.35-2.45,22.14-11.5,26.94-16.11,2.68-2.57,8.88-14.53,9.55-18.12.33-1.76-.04-3.65.22-5.5,1.02-7.42,4.11-16.14,5.84-23.59.67-2.87.89-7.99,1.82-10.47,1-2.69,9.43-10.16,11.74-13.31,3.5-4.77,5.15-10.45,9.05-15.1,3.31-3.95,7.98-6.88,11.42-10.54,1.34-1.43,2.39-3.63,3.5-4.85,2.08-2.29,6-4.13,8.58-6.79,4.47-4.61,4.93-5.92,6.66-11.79.82-2.79,5.3-8.03,8.28-8.02,3.32.01-.15,2.81-.84,4.04-2.71,4.9-.08,20.7,3.23,25.22.61.83,2.12,1.31,2.43,1.96s.41,3.12,1.78,3.43c.44.1,1.1-.42,1.95-.19,1.65.45,3.61,4.8,4.15,6.43.46,1.38.37,3.5,1.09,4.62.98,1.53,3.28.89,3.87,1.62.15.19,1.45,3.69,1.45,4.07,0,1.74-3.19,4.99-.68,5.49.88.18,2.06-.55,1.99.67-.12,1.89-2.86,4.69-2.64,7.84.1,1.41,1.35,4.8,3.06,4.01.3-.14,4.9-4.03,5.13-4.32,2.39-2.92-.73-5.35-1.85-7.75-3.39-7.25-4.85-17.02-9.42-23.52-.81-1.15-2.91-2.16-3.64-3.41-4.5-7.64-4.57-16.23-5.64-24.65-.18-1.43-1.23-3.93-1.22-4.89s2.47-3.71,3.13-5.17c.84-1.85.33-2.95,2.3-4.72,2.35-2.1,3.54-.93,6.14-1.33,3.75-.57,2.05-8.1,6.39-9.47,2.41-.76,4.18,4.28,6.78,2.43,1.04-.74,2.2-6.14,3.97-7.9,2.41-2.4,4.49-.03,5.95-.62,1.69-.69,1.96-5.77,4.88-7.44s4.26,1.67,6.09.85c2.32-1.03,1.52-3.62,1.98-5.52.15-.64,1.41-3.76,1.75-4.4,1.55-2.94,4.17-2.75,6.41-.65,1.03.97,1.74,3.45,3.49,2.66,2.68-1.21,2.24-13.76,7.67-13.41,4.22.27,2.28,7.23,3.81,8.3,2.61,1.82,4.01-6.06,4.57-7.42.98-2.35,3.1-6.48,5.82-6.96,4.7-.82,1.39,7.94,4.66,7.36,1.61-.29,4.12-6.66,5.38-8.26.99-1.26,5.06-4.3,6.58-4.45,3.24-.3,4.19,5.19,1.06,3.72-1.14-.53-.61-1.71-2.62-.4-5.97,3.88-12.78,24.68-15.17,31.83-.39,1.18-2.13,8.43-2.47,8.72-.15.12-1.64.11-1.71.05-.95-.92,4.89-21.44,5.21-24.87.13-1.37.8-11.51-2.36-8.51-.68.65-3.8,8.2-4.38,9.68-2.34,6.01-4.48,12.91-5.83,19.21-.24,1.1.3,3.39-1.46,2.11-.64-.46-.55-7.52-.38-8.77.28-2,1.79-3.49,1.63-5.62-.07-.87-1.95-7.86-2.32-8.26-.96-1.04-2.06.02-2.61.92-1.86,3.06-.61,7.13-1.8,10.5-.75,2.15-2.93,3.6-3.62,5.61-1.13,3.32-.81,7.47-1.46,10.83-.29,1.51-1.49,2.89-1.31,4.62-2.73.68-1.51-1.6-1.74-3.7-.57-5.37-.86-8.66-.86-14.04,0-1.25.68-12.72-2.89-9.03-1.09,1.13-1.63,7.03-2.16,8.82-.42,1.41-1.4,2.76-1.88,4.27-2.66,8.49.23,14.65.77,22.7.1,1.43.59,8.83-2.23,7.07-2.29-1.43-1.93-21.58-2.19-25.5-.09-1.45-.27-4.39-.53-5.62-.58-2.75-2.56-1.84-3.59.17-2.72,5.33-3.8,18.91-4.24,25.19-.11,1.53.44,7.77-.4,8.39-1.45,1.06-1.67-.97-1.78-2.22-.58-6.81.93-14.06.45-20.66-.64-8.84-4.3-5.26-5.97.65-1.77,6.29-1.65,12.72-2.37,19.15-.1.87-.69,2.2-1.77,1.51-.58-.37-.56-6.94-.41-8.09.47-3.5,2.25-3.7.48-8.03-3.18-7.81-6.69-1.12-7.44,3.7-.68,4.34-.51,15.96-.12,20.56.17,1.98,1.22,4.09,1.31,5.75.06,1.18-1.4,4.25-.19,4.55.5.12,4.94-1.94,5.25-2.65.59-1.34-.11-6.82,1.33-7.46,2.2-.98,1.08,4.33,1.95,5.51,1.08,1.47,1.86-.05,2.31-1.25,1.65-4.34-.38-9.23-.55-13.69-.03-.89.13-5.59.49-5.92.19-.18,1.27.05,1.72-.03-.24,2.47.74,4.82.9,7.23.17,2.59-.7,15.72.85,16.72.54.35,1.19.19,1.77.21.1-1.52,1.39-8.33,2.42-8.78l2.71,3.1c2.93,1.3,4.17-.42,3.63-3.3-.12-.63-1.4-2.33-.85-2.87.06-.06,1.66-.04,1.73.02.12.12.04,3.32,1.78,2.17.44-.29.34-4.45,3.29-3.98,3.43.55-.82,3.37-1.06,3.9-.42.94-.9,7.19-.92,8.63-.03,2.45.16,6.37.49,8.77.28,2.02,4.28,8.3-.5,5.78-1.29-2.6-4.98-15.18-8.1-15.2-2.63-.02-1.13,4.6-1.1,5.94.02.82-.49,1.67-.46,2.62.03,1.45,3.08,9.06,2.66,9.46-1.19,1.12-2.34-2.9-2.75-3.62-1.65-2.92-3.96-7.93-5.88-10.32-.71-.88-2.1-1.94-3.11-.88-1.71,1.77,3.04,12.41,2.08,13.5-1.23,1.4-3.28-6.62-3.57-7.18-1.84-3.55-6.58-8.21-8.1-1.63-1.7,7.37,3.7,24.05,7.8,30.47.73,1.15,2.11,3.54,3.62,3.41s2.12-2.4,2.03-3.75c-.21-2.88-5.22-9.62-6.4-12.96-.2-.58-1.29-5.08-1.1-5.27.91-.86,1.81,1.12,2.07,1.66,1.98,4.16,3.23,8.85,5.34,13.12,1.12,2.28,4.23,6.06,4,8.23-.35,3.26-.83,2-.02,5.8.13.59-.07,2.28.04,2.38,1.16,1.15,1.64-1.85,2.49-2.13,1.75-.59,2.8.81,4.2.72,3.44-.21,10.34-6.09,13.04-1.85,2.03,3.2-1.44,5.61-2.06,7.96-.17.64-.93,3.88-.96,4.33-.14,1.59.62,2.5,2.18,1.72,1.86-.92,5.03-11.81,6.21-14.43,2.77-6.14,9.53-15.63,14.49-20.19,3.56-3.27,9.24-6.38,12.04-10.37.72-1.03,1-2.94,1.13-3.04.14-.12,1.64-.11,1.71-.05.15.15-.03,2.21-.11,2.74-.8,5.44-9.21,8.87-13.07,12.84-8.59,8.84-22.47,34.74-25.36,46.68-1.43,5.94-.39,19.3,4.63,23.37,2.34,1.9,12.86,8.32,15.36,8.7,2.77.42,6.21.18,9.11.55,17.75,2.28,26.97,2.76,44.7-1.44,33.04-7.82,65.46-35.39,101.1-30.6,5.22.7,18.07,8.64,20.36,13.46.5,1.06.46,2.31,1.04,3.35,1.1,1.98,5.09,2.6,7.27,3.71,8.57,4.35,13.78,7.37,23.4,9.99,1.42.39,9.33,1.62,9.66,1.98.07.08.08,1.66.03,1.73-.29.31-2.24-.46-2.87-.45-3.68.04-8.01,1.11-11.74.36-1.33-.27-2.65-1.67-3.72-1.99-.95-.28-2.01-.01-3.09-.41-.18-.07-2.22-2.1-2.78-2.51-.91-.67-2.46-2.03-3.47-2.28-1.56-.38-2.23,1.01-4.07.62-2.13-.45-4.65-4.48-7.04-3.82-1.96.55-2.47,7.6-1.98,9.3.83,2.85,9.99,4.21,8.69,6.01-.1.13-2.66,1.74-2.83,1.74-1.73.09-5.18-2.75-7.39-2.1-2.5.73-1.19,2.38.68,3.1,3.34,1.27,7.21.43,10.59.83,1.8.21,3.39,1.11,5.3,1.29,6.22.58,10.46-1.72,15.83-1.81,2.48-.04,10.88,2.14,12.33.06,1.09-1.57-1.79-2.02-3.15-2.17-6.21-.69-12.49,1.53-18.41.84-2.9-.34-3.25-2.29-.45-2.67,5.43-.73,12.83.22,18.49-.44,2.54-.5,8.67,3.61,9.99.76.89-1.92-4.38-2.7-5.53-3.37-.46-.27-.41-1.2-.3-1.32.48-.49,11.82,1.93,11.83,5.49,0,3.14-3.69,2.53-5.36,2.96-10.05,2.58-18.85,5.24-29.53,4.72-7.08-.34-15.55-3.3-22.4-3.07-8.16.27-17.43,6.05-25.28,8.56-9.26,2.95-15.44,2.56-24.8,3.31-2.44.19-5.02,1.14-7.46,1.33-6.43.49-13.08-.69-19.36-.48-13.46.46-40.13,12.78-51.04,20.97-6.47,4.85-11.74,11.23-18.94,15.34-5.33,3.04-12.15,4.8-17.14,7.9-1.81,1.13-4.12,2.86-3.45,5.12,2.02,6.86,8.63,18.47,12.89,24.44,1.5,2.1,4.34,4.44,5.34,6.52,1.09,2.26.4,3.35-1.68,1.68-.82-.65-4.19-5.01-5.16-6.24-8.83-11.21-13.02-21.44-19.32-33.85-3.13-6.17-8.86-13.54-9.67-20.68-.13-1.11.8-4.57,1.96-4.88,1.9-.51,1.31,1.94,1.67,3.04,2.1,6.51,4.59,7.44,7.46,12.31,1.58,2.68,1.04,3.14,3.53,6.14.42.5.54,1.68.94,1.77,1.13.24,1.96-.82,2.89-1.06,1.23-.31,3.16.39,4.09-1.61,1.19-2.55-2.28-1.22-3.53-1.71-4.49-1.77,1.32-7.17,3.9-6.65.31.06.25.8.59.88.95.23,3.02-.29,3.59.07.95.61-.32,4.12.78,4.36.62.13,5.62-2.55,6.43-3.12,1.97-1.38,5.7-6.3,4.99-8.78-.16-.54-.85-1-1.03-1.65-.4-1.44-.54-3.41-.99-4.93,1.39-.24,1.15,1.63,2.07,2.21,1.23.77,3.36-.38,3.79-1.44.64-1.57-.51-4.57,1.83-4.32,1.04.11,1.61,1.72,1.35,2.68-.13.48-7.57,8.89-2.43,7.27,3.27-1.04,3.37-6.33,4.42-8.78.31-.71,3.45-5.14,3.92-5.33.65-.26,1.8.32,2.79.22,1.25-.12,5.07-1.91,5.72-1.73,2.07.6-.65,3.63-.57,4.09.39,2.07,2.01.14,2.9-.07.83-.19,1.79.06,2.52-.12,5.21-1.31,2.76-1.43,4.31-4.92.58-1.31,3.41-4.86,4.75-5.35,1.25-.46,3.39-.09,4.17-1.56.95-1.78-3.76-4.26-4.4-5.72-.86-1.96-1.4-6.19-2.31-8.67-.64-1.74-2.08-6.05-3.95-6.61-2.15-.64-11.51,3.2-14.51,3.76-7.95,1.48-14.85.46-22.71.09-9.38-.43-21.36.47-29.44-4.82-5.45-3.57-8.63-10.13-13.89-13.78-6.78-4.7-13.88-7.63-21.47-10.6-1.36-.53-3.06-1.97-4.41-2.22-3.14-.59-2.51,1.56-6.02-1.51-.36-.32-1.32-.2-1.46-.7-.6-2.18,1.95-1.33,2.2-2.63.54-2.78-8.81-.97-10.21-1.14-1.58-.19-1.28-1.65-2.28-2.57-2.09-1.92-7.13-.19-9.59-.86-.57-.15-1.51-3.02-2.51-3.74s-4.06-1.53-5.56-2.35c-1.4-.76-5.93-3.97-6.99-4.03-3.89-.22-1.57,6.99-4.45,7.83-1.34.39-2.31-.27-3.36-.21-1.22.07-2.31,1.12-4,1.21-1.99.11-3.84-.99-5.26-.9-1.74.12-3.56,2.45-5.28,2.21-2.93-.41,1.34-2.95.64-3.54s-7.91,2.54-9.39,2.68c-1.83,1.02-.74,2.59-1.34,3.49-.36.54-3.15.56-3.32.41-.52-.46,1.65-1.72.45-2.43-.68-.41-3.6-.15-3.97-.65-.18-.25,1.15-1.55,1.22-2.05.31-2.14-3.96-3.74-3.9-.8.04,2.06,2.67,3.21,2.67,3.52,0,.34-2.41,1.35-2.56,2.26-.11.67.78,1.23.63,1.95-.19.88-4.73,3.78-2.01,5.47,1.9,1.18,12.88-4.71,15.5-5.61.83-.28.94-.62,1.62.31l-17.16,8.76c-.73,1-.04,3.37.44,4.45.6,1.34,1.73,1.27,1.83,2.17.17,1.57-2.44,1.93-2.64,3.13-.08.51.69,1.32,1.13,1.41.86.17,12.42-7.17,14.41-7.86.63-1.04,3.06-6.85.95-6.53-.18.03-3.49,2.64-2.9.19.09-.37,5.95-2.97,6.62-3.92.62-.88.24-1.76.49-2.58.13-.42,5.66-4.18,6.28-4.23,2.45-.18,1.58,2.66,2.05,3.41.28.44,2.51.66,3.15.45,1.3-.43.87-2.33,1.27-2.91.06-.09,1.77-.98,1.88-.98,1.33,0,9.11-.33,9.44,0ZM246.71,59.39c-2.03-2.18-4.66,3.65-5.04,5.07-.81,3-.87,8.55-.52,11.69.16,1.43,1.76,9.39,2.16,10.47.18.48.88.46,1.21,1.08,1.07,2.05-.45,2.94-.33,4.69.07,1.05,1.32,3.89,2.39,4.09,2.31.44,0-3.78.31-5.25.38-1.86,3.36-3.18,3.46-6.27.03-.88-.71-4.24-1.03-5.13-.34-.96-1.59-1.93-1.61-2.76-.02-.92,1.42-2.95,1.63-4.06.9-4.74-1.42-9.21-2.64-13.62ZM222.76,83.99c-1.46,1.52.12,8.92.9,10.96,1.39,3.62,4.78,7.41,5.74,11.43.4,1.69-.91,4.31,1.16,5.41,1.14.61,3.37-1.72,3.9-2.71,1.35-2.56-.91-3.86-1.79-6-1.58-3.84-4.57-17.36-7.66-19.16-.71-.41-1.62-.58-2.24.06ZM225.47,110.06c-3.52-4.05-3.44-5.6-5.35-10.24-.28-.69-1.19-1.16-1.35-1.76-.08-.27.42-4.23.41-5.56,0-.7,1.09-3.55-.69-3.68-2.49-.19-1.78,3.79-1.99,4.95-.47,2.54-8.97,3.42-10,7.13-.37,1.34.31,2.79-.77,4.06-.92,1.09-6.11,2.91-8.12,4.62-2.38,2.03-1.98,3.27-3.3,5.05-.55.74-3.23,1.85-2.41,3.07.17.25,2.16.51,2.74.36,1.55-.41,2.96-2.86,5.27-2.48,1.54.26,3.28,2.4,4.99,2.56,1.18.11,2.74-.49,4.34-.43,2.43.09,4.3,1.44,5.83,1.69,1.13.18,1.92-.58,3.2-.2.23.07,3.78,2.26,4.1,2.52,1.08.88,1.71,3.13,3.5,2.53,1.02-.34,3.86-5.02,1.78-5.64-1.15-.35-3.24,2.37-3.69.63-.4-1.58,4.36-3.31,2.88-7.71-.3-.9-.95-.96-1.39-1.46ZM239.14,103.77c-3.12-.24-.57,6.78,1.57,4.08.9-1.13-.6-4.01-1.57-4.08ZM236.14,112.94c-1.95.47-.76,2.58-.75,3.67.05,2.83-.44,7.25.3,9.8.61,2.11,2.38,2.97,3.41,4.5,1.09,1.61,6.24,11.21,7.87,10.92,2.17-.39.88-2.35.88-2.81-.01-.87,1.23-2.01,1.07-3.83-.18-1.99-5.22-16.91-6.28-19.24-.33-.74-1.27-2.04-1.97-2.36-.21-.1-4.31-.7-4.54-.64ZM190.46,119.51c-1.9.5-3.31,4.2-4.17,5.54-.5.78-4.6,5.3-2.5,5.84.73.19,1.07-.28,1.55-.64,1.31-.98,7.6-7.98,7.4-9.18-.1-.59-1.48-1.76-2.28-1.56ZM248.57,148.89c.42-.42-.34-1.37-.64-1.77-1.64-2.25-8.71-8.44-11.22-10.75-1.04-.96-3.76-2.01-3.79-3.5-.02-.73.76-1.58.7-2.61s-1.01-1.82-1.21-2.76c-.26-1.24.37-5.05-.77-5.39-1.41-.42-5.43,5.22-6.28,6.45-.68.97-1.04,2.71-1.86,3.44-.98.87-4-.04-5.02,2.88-1.16,3.34,3.99,3.3,3.72,4.58-.16.79-3.54.67-4.79,1.36-2.38,1.32-2.7,3.02-1.44,5.32,1.59,2.9,4.72,2.86,7.42,4,1.66.7,3.72,2.03,5.31,2.59,2.91,1.03,6.62,1.24,9.52,2.76,2.19-1.66-2.01-2.09-2.35-2.69-2.24-3.92,8.34,1.69,9.18,1.16,2.05-1.3-2.54-3.2-3.04-4.01-.9-1.46.11-3.98-1.82-4.8-1.37-.59-3.27.88-4.62,1.08-4.32.66-7.88-4.21-11.85-5.67-.82-1.93.39-1.09,1.66-1.45,1.34-.38,1.61-.57,1.1-2.18-.09-.28-2.37-3.51-.56-2.96,4.27,2.72,8.53,5.5,12.67,8.42,1.65,1.16,3.19,2.36,4.84,3.51.78.54,4.24,3.89,5.12,3ZM183.21,135.35c-.4.71.35,1.9,1.07,2.03.77.14,4.6-1.63,5.85-1.91,6.62-1.48,10.69,1.91,17.17-.4,3.05-2.11,12.91-.9,10.02-6.55-2.25-4.4-9.76-.28-13.47.47-6.47,1.31-12.97.95-18.85,4.83-.22.15-1.74,1.43-1.8,1.53ZM210.74,136.65c-.42-.27-1.63-.03-2.16.15-2.36.81-5.68,2.97-8.33,3.97-3.37,1.28-7.12,2.05-10.53,3.53-1.08.47-7.05,3.56-7.03,4.38,0,.11.85.94,1.15,1,1.28.27,10.86-4.58,12.9-5.39,2.5-.99,13.01-4.04,14.1-5.7.35-.53.32-1.67-.1-1.94ZM268.17,139.69c-2.58.45-1.23,6.52,1.21,6.06s.33-6.33-1.21-6.06ZM176.19,142.84c-.65.63-1.28,3.24-.54,4.09,1.31,1.51,2.77-.9,3.85-1.44,1.99-1.01,4.35-1.22,6.22-2.13s3.62-2.95.29-2.83c-1.1.04-9.37,1.88-9.81,2.31ZM256.17,149.63c.59.51,2.02.8,2.05-.07,0-.2-1.48-2.71-1.77-3.49-.35-.95-.66-4.89-2.34-4.61-3.17.52.67,6.98,2.06,8.18ZM182.03,154.16c1.01.3,5.12,0,6.59,0,1.86,0,14.34-4.48,16.34-5.62,1.77-1.01,2.54-3.01.29-3.05-.93-.02-6.99,3.61-9.36,4.09-4.2.84-6.17.35-10.98,1.76-.96.28-2.03.02-2.82.26-1.14.35-.9,2.32-.07,2.57ZM279.99,146.9c-1.46-.05-2.68.61-3.02,2.08-.27,1.15.53,1.77.47,2.7-.04.7-1.65,3.46-.09,3.8,1.18.25,2.41-3.99,4.18-5.03.95-.55,3.37-.73,3.49-1.34.28-1.32-4.05-2.16-5.04-2.2ZM282.03,152.93c-1.23.7-1.11,5.01-1.49,6.19-.32,1-1.85,1.19-1.01,2.94,1.34,2.8,3.77-2.3,4.14-3.77s1.26-7-1.64-5.36ZM267.37,160.44c-2.66-1.53-.05,3.87.6,4.86,2.46,3.77,5.47.76,5.21-.37-.06-.27-2.94-1.52-3.67-2.06-.57-.42-1.85-2.27-2.13-2.43ZM442.72,199.4c.72-.97-4.27-2.11-1.44-3.41,2.99-1.38,9.27-.58,12.65-1.85,3.21-.17,5.85,1.25,8.97-.7,1.8-1.13,1.37-2.54,2.21-3.94,1.71-2.81,6.41-6.25,9.51-3.41,1.62-.82,5.11,1.42,4.91-1.28-.15-1.97-2.11-7.99-3.24-9.54-1.05-1.43-7.38-6.87-8.82-7.01-1.23-.12-1.88,3.09-4.56.62-.68-.63-1.25-2.18-2.04-2.38-.83-.21-2.05.68-3.03.78-3.62.4-6.22-1.02-9.61-1.3-4.18-.33-11.62.4-15.73,1.44-.75.19-6.03,2.41-6.46,2.76-.83.69-.72,2.61-.93,2.8-.31.26-3.9-.28-5.74.63-3.74,1.85-3.19,6.82-5.91,9.91-.76.86-3.09,1.57-1.96,2.93,1.03,1.23,3.6-.14,5.09-.24,5.68-.37,5.48.42,9.95,1.89,2.31.76,7.26.55,7.35,4.45.06,2.63-3.78,3.65-2.95,6.5.87,3.01,4.38.52,6.29.32.98-.1,5.22.37,5.49,0ZM276.31,168.28c-1.07,1.71,2.13,4.57,3.49,2.83,1.84-2.36-2.53-4.36-3.49-2.83ZM401,187.11l-24.17,6.36c-1.66,1.8.81,5.96,1.57,8.11.28.8.11,1.81.4,2.67s2.34,3.53,3.07,3.97c2.08,1.22,3.34-1.62,4.96-2.55,2.56-1.47,7.75-.88,8.37-3.53.72-3.09-6.1-3.31-2.1-8.66,2.38-3.18,6.43-3.21,7.95-4.82.39-.41.01-1.51-.05-1.55ZM372.31,193.82c-4.97-2.97-4.56,3.18-3.7,6.56,1.06,4.17,7.85,14.06,11.5,16.17,1.17.68,4.5,1.34,5.03-.31.66-2.04-6.38-7.76-7.79-10.1-2.2-3.62-3.08-8.52-5.03-12.32ZM245.06,252.56c-.39-.34-4.29.78-4.81,1.11-1.21.79-.79,2.75.2,2.78.31,0,5.46-3.15,4.61-3.89ZM264.31,266.54c1.46-.95-.62-3.39-.74-4.21-.4-2.75,7.34-3.77,7.4-6.03.08-3.28-6.28-3.11-8.45-2.76-1.26.2-6.83,1.5-7.75,1.91-1.79.82-8.12,5.51-8.39,7.46-.62,4.46,6,.94,5.21,3.85-.48,1.78-3.44,1.45-4.79,1.81-.66.17-1.29.86-2.06,1.02-2.7.56-8.66-.47-2.76,4.27,4.95,3.98,8.66-.25,13.4-.22.55,0,4.02.73,4.14.9.72,1.05-1.73,2.88-.42,3.72.79.5,2.52-.06,3.66.62.25.15,3.61,3.46,4.06,3.96.72.82.74,1.93,1.72,2.67s5.8,1.8,5.94,2.41c.11.48-5.48,4.81-6.02,4.97-1.89.56-2.5-1.16-3.89-1.25-1.06-.07-1.88.85-3.05.91-1.42.07-3.33-1.3-4.18-.71-.32.22-.31,1.14-.67,1.15-1.32.03-2.59-2.21-3.92-2.71-1.45-.54-2.83.44-3.76-.16-.8-.51.25-1.58-.17-2.43-.46-.93-3.14-1.5-3.3-2.47-.14-.81,3.43-2.56.67-4.6-1.7-1.26-3.83,1.2-4.66.72-1.42-.81.69-3.84-1.79-6.13-2.74-2.54-5.3.1-5.66-.27-.49-.5,5.74-9.26.66-9.26-1.75,0-6.83,3.23-9.36,3.86-1.05.26-2.31.51-3.39.61-.92.08-2.03-.48-2.58-.38-1.13.21-1.76,3.47-3.21,3.79-.68.15-1.49-.45-2.44-.3-1.39.21-3.23,2.15-4.65,2.34-1.11.14-2.26-.48-3.7-.1-.81.21-6.88,4.54-7.15,5.18-.21.49.07,1.68.52,1.78,1.11.25,2.28-.95,3.45-.94,1.03,0,1.73.75,2.66.89,4.23.64,13.12-4.49,18.02-5.21,1.16-.17,4.8-.61,4.14,1.06-.39.99-9.34,3.08-10.91,3.6-2.97.98-14.11,4.32-15.24,6.73-.64,1.36.41,2.8,1.77,3.06,4.4.83,9.61-2.72,13.83-4.16,3.98-1.36,9.46-2.2,13.18-3.95,1.18-.55,2.33-2.21,2.94-2.35.2-.05,3.85.33,4.03.43.52.31.43,3.08.69,3.92.32.99,1.75,2.12,2.31,3.4,1.46,3.32.89,7.85,3.65,10.41,2.4,2.22,7.64.16,8.34,1.76.61,1.4-1.9,1.31-2.63,2.2-1.09,1.32-.14,4.16,1.32,4.82,1.28.58,6.7-.08,7.99-.67,1.92-.87,1.22-3.73-.09-5.03-1.57-1.55-4.9-1.35-3.73-3.73,1.77-3.6,7.32-.29,8.12-.89.14-.1-1.28-1.82-.88-2.19.31-.29,5.37.36,5.97,2.19.15.47.4,4.18.18,4.4-.71.7-7.46-3.65-7.47-.65,0,.23,3.11,2.7,3.56,3.03,5.08,3.76,11.95,7.99,17.39,11.6,3.01,2,14.48,8.12,17.59,8.76,1.01.21,3.65.3,4.52-.12,1.28-.62.68-2.33.98-3.41.48-1.71,2.07-2.77-.14-4.02-1.92-1.09-3.62-.39-3.93-3.54-.24-2.44,1.62-4.84-1.96-5.06-4.89-.31-4.38,4.32-5.93,5.09-.47.23-1.65-.08-1.77-.54-.56-2.22,1.09-6.54.48-9.13,3.51-4.76-3.35-6.08-1.71-11.38.24-.77,1.45-.97,1.69-.73.27.29-.79,2.79.44,4.61,3.55,5.26,10.62-1.52,7.85-6.12-.08-.13-2.01-1.96-2.24-2.12-5.7-3.98-6.75,3.02-11.36,1.68-.64-.19-1.65-1.6-2.62-2.2-1.96-1.22-4.5-2.44-6.58-3.53-1.09-.95.34-2.24.37-3.17.08-2.54-5.25-.88-6.41-1.55-.5-.28-1.18-3.24-2.11-4.25-1.91-2.07-5.95-2.38-8.02-6.05-1.69-2.99,2.96-2.3,3.81-2.86ZM279.33,274.52c1.35.91,2.1-2,2.83-2.65s2.73-.97,2.87-1.53c.25-1.02-3.17-1.69-2-3.31.12-.16,3.28-1.56,3.64-1.63,1.59-.32,4.77.52,5.34-1.73.23-.92-.63-1.49-.74-2.2s.39-1.34.26-2c-.3-1.6-1.45-4.66-3.11-5.27-.25-.09-4.74.54-5.26.66-1.27.31-2.9,1.46-3.71,1.57-2,.27-6.65-2.12-4.55,2.97,1.49,3.59,3.33-.13,5.1-.24.84-.05,5.07.36,6.02.53.56.1,1.89.47,2.07,1.01.68,2.08-2.67,1.33-3.63,1.61-.47.14-2.4,1.94-3.65,2.5-1.51.68-4.35.86-5.24,2.7-.74,1.51,2.23,2.87,2.89,4.13.37.71.74,2.81.87,2.89ZM39.62,270.26c.53-.66,2.02-1.17,2.69-2.35.77-1.37,1.61-4.47,2.23-6.12.31-.84,2.56-3.92-.34-3.45-1.25.2-8.95,5.31-9.11,6.76-.34,3.05,2.05.41,2.52.27,2.84-.82,2.22,3.27.59,5-7.28,7.71-17.46,7.49-26.93,9.53-1.52.33-2.92,1.2-4.61,1.54-1.44.29-4.43-.46-3.58,2.04.19.56.85.7,1.35.86,6.02,1.9,19.29-.99,25.5-2.91,1.74-.54,6.54-2.25,7.79-3.2,3.85-2.91,0-5.57,1.92-7.97ZM16.74,265.38c-.45.96.88,2.48,1.86,2.53,1.19.06,4.82-2.22,6.27-2.52s2.98.17,4.21-.19c.98-.29,3.19-3.33,2.88-4.43-.76-2.7-4.52.64-6.09,1.22-1.93.71-8.34,1.71-9.12,3.38ZM296.96,274.9c-.31-.5.17-1.96-.29-3.01-.31-.7-1.88-1.64-2.43-2.4-.61-.86-.43-3.07-2.22-2.67-.35.08-2.73,1.69-3.19,2.06-1.99,1.61-4.21,4.28-4.6,6.85-.05.33.88,3.46,1.01,3.63.4.53,2.81.57,2.82,1.53,0,.21-2.9,3.46.5,1.76.52-.26.64-1.09,1.02-1.39.61-.49,3.27-2.57,3.68-2.69,2.53-.74,4.36,2,5.87-.3,1.58-2.41-1.96-3.05-2.16-3.37ZM80.67,274.42c.48-.5.68-2.6,1.08-3.53.21-.49,2.51-2.63.99-2.96-1.13-.24-5.27,4.1-5.43,5.15-.28,1.86,2.28,2.44,3.36,1.33ZM26.24,271.07c-1.84-1.17-7.41,1.03-9.48,1.59-1.41.38-2.6-.28-4.05.78-3.11,2.28,3.01,2.17,4.6,1.97,1.46-.19,2.54-1.09,3.98-1.29s4.97.6,5.39-1.23c.09-.39-.22-1.68-.44-1.82ZM78.86,281.71c-.49-.25-3.29-1.45-3.51-1.41-.13.03-2.03,1.43-2.06,1.55-.98,3.98,8.97,5.43,9.92,4.1,1.14-1.61-2.8-2.92-3.86-3.55-.24-.14-.32-.61-.49-.7ZM303.37,286.72c1.77-1.75-1.28-6.26-3.83-4.05-3.66,3.17,1.21,6.64,3.83,4.05ZM45.64,284.62c.51-.5,6.38,2.1,5.49,0-.55-1.31-3.99-2.25-5.3-2.23-1.04.02-.69,1.36-1.82,1.71-1.24.38-2.93-.21-4.22.17-.93.28-1.8,1.99-2.78,2.49-1.04.54-2.08.34-3.04.91-.67.39-1.41,1.68-2.17,2.22-1.26.89-7.84,3.77-5.06,5.5,1.64,1.02,9.42-2.23,10.1-1.54s-1.45,2.68-1.98,3.07c-1.82,1.35-5.28,1.51-5.44,4.17-.22,3.75,3.95-.31,5.09-.56,1.42-.31,3.34.27,4.52-.31,1.12-.54,1.7-3.68,3.93-3.99.58-.08,1.63,1,1.66,1.35.12,1.43-6.16,4.78-7.56,5.95-2.61,2.17-3.2,3.69-4.88,6.1-.76,1.09-2.85,2.37-2.83,3.79.05,3.05,6.18-1.43,7.31-1.94,2.16-1,4.68-1.74,6.77-2.89,2.52-1.39,5.52-4.92,8.11-4.67,2.97.29,1.01,2.49-.52,3.48-5.29,3.43-13.48,4.33-17.65,10.47-2.08,3.06-2.2,5.63,2.21,4.41,13.54-3.74,25.16-11.64,36.86-18.93,1.46-.91,7.05-3.11,7.33-4.51.6-3.01-4.42-.79-5.33-1.08-1.06-.33-.74-2.33-2.28-2.61s-2.31.63-3.53.87c-.77.15-2.51-.15-2.83.03-.05.03.35.63.12,1.18-.64,1.51-9.39,6.74-10.22,5.84-.75-.81,2.44-5.84,3.2-6.45,1.7-1.38,5.24-.22,5.59-.57.93-.94-2.09-3.99-3.04-4.2-1.19-.26-2.24,1.62-3.14,2.2s-3.26,1.48-3.8,2.12c-.66.79-1.63,5.84-3.87,3.83-1.37-1.23.71-2.75,1.35-3.93.35-.64,1-2.95,1.13-3.04.48-.3,2.26.17,3.44-.3.7-.28,4.99-3.8,4.66-4.6-.73-1.73-8.8-3.57-9.47-3.07-.73.55,3.44,2.61,2.2,3.3-.99.55-3.16.04-4.52.31-1,.2-1.98,1.17-2.94,1.45-3.21.95-1.21-1.02-.91-2.67.12-.66-.09-2.72.02-2.84ZM116.7,287.15c.19-.11.26-.83.83-1.11.9-.45,5.42-1.64,5.41-2.51-.03-2.44-8.58.27-8.33,3.52.33.41,1.72.33,2.09.11ZM11.81,291.22c.11.12,1.47,0,1.88-.1,3.74-.84,9.27-3.52,13.05-4.96.67-.25,1.75-.1,2.22-.42.98-.67.45-2.82-1-2.36l-15.89,5.59c-.44.29-.34,2.17-.26,2.25ZM127.23,283.85c-3.4.53-5.62,3.73-2.31,6.05,3.94,2.76,3.87.4,5.73-1.74.71-.82,2.42-1.39,2.42-2.43,0-1.88-4.51-2.08-5.84-1.88ZM93.48,285.09c-.73-.52-6.59,2.15-4.15,4.37,3.13,1.32,6.37,2.39,9.53,3.65,2.56,1.02,5.55,3.48,8.39,2.85,1.61-.36,8.47-5.86,6.9-7.37-.2-.2-3.72.17-4.6,0s-1.2-.97-1.88-1.2c-1.72-.58-7.1-1.79-8.71-1.86-1.49-.06-3.55,1.88-4.31,1.71-.85-.2-1.01-2.02-1.17-2.14ZM203.45,298.56c2.03,2.05,8.33.04,10.56-1.28,1.22-.72,2.59-2.38,3.71-2.89,1.2-.55,2.64-.18,3.79-.55,3.02-.98,2.5-.91,5.7-1.45,2.23-.37,7.73-1.69,6.79-4.82-.81-2.7-3.58-.09-4.63.04-.8.1-1.54-.45-2.44-.3-1.59.28-4.29,3.62-6.22,4.35-3.63,1.38-6.01.75-9.16,1.4-1.53.31-4.06,2.34-5.48,2.46-1.08.1-1.7-.71-2.09-.69-1.6.09-1.63,2.6-.53,3.71ZM117.25,293.4c-.06-.05.02-.98-.46-1.52-1.55-1.77-4.42,1.97-3.52,2.85.09.09,1.68-.11,2.33.09,1,.31,1.04,1.6,3.14,1.23.87-.15,5.1-3.31,3.71-4.36s-4.28,2.56-5.21,1.71ZM204.75,302.3c-1.02.99-.54,2.66,1,2.96,10.09,1.93,21.77-5.17,31.27-7.8,3.19-1.22-.57-5.99-2.55-5.6-1.85.36-5.43,3.06-7.44,3.96-3,1.34-8.37,3.65-11.41,4.4-2.07.51-9.68.91-10.88,2.07ZM22.22,295.22c-.77.21-1.38,1.62-2.06,1.92-.94.41-2.05.11-3.09.42-2.5.74-9.06,5.85-2.38,5.54,3.72-.18,3.99-1.89,6.37-3.74.67-.52,1.69-.51,2.17-.9,1.23-1.01.7-3.69-1.01-3.23ZM48.85,320.78c-3.27,3.84,5.83,1.82,7.33,1.41,9.04-2.51,15.45-8.89,23.6-12.86,4.46-2.17,9.09-2.97,13.26-6.06,1.6-1.18,2.25-1.7.69-3.26-2.25-2.26-3.6-2.59-6.42-1.13-6.77,3.52-13.87,9.29-20.73,13.08-3.87,2.14-15.49,6.19-17.74,8.83ZM245.37,311.73c2.52-3.14-3.93-12.39-7.09-12.17-.9.06-3.06,1.52-3.45,2.32-.85,1.74,2.56,2.35-.6,4.64-4.12,2.99-12.3,5.57-17.26,6.9-1.81.49-3.83.17-5.62,1.37-.93.62-1.07,2.2-1.66,2.34-1.11.26-2.38-3.71-4.21-3.32-3.16.67-3.36,8.48,1.98,7.69,2.75-.41,2.13-2.76,2.45-3.05.4-.36,1.78,1.07,2.51,1.24,2.83.62,5.12-1.82,7.49-2.88,4.54-2.02,14.9-6.83,19.32-7.48,2.48-.37,3.72.4,1.72,2.38-.52.51-3.77,1.93-2.48,3.23.95.96,6.14-2.25,6.89-3.2ZM233.64,302.2c-.83-1.07-3.16,1.07-4.08,1.4-1.78.66-4.92,2.03-6.33,2.46-1.08.33-2.31-.11-3.34.1-.56.11-6.97,6.53-1.89,4.34,3.68-1.59,7.73-3.04,11.2-4.61.73-.33,5.21-2.7,4.44-3.68ZM261.65,308.42c-1.63.27-6.9,2.97-6.89,4.97,0,2.51,6.52,9.04,9.01,9.4,6.12.88,6.36-2.38,10.17-3.37,1.28-.33,2.81.32,3.85-.54,1.81-1.5-2.46-3.41-3.56-3.52-2.26-.23-4.3,2.54-5.63,2.18-2.21-.6,1.38-3.32.87-4.36-1.14-2.32-3.2-.57-4.2-1.08-1.38-.71-.75-4.16-3.62-3.69ZM68.54,329.8c1.63,2.57,4.61-4.18,5.22-4.53.64-.37,1.55-.16,2.19-.45,2.85-1.29,11.87-9.04,13.84-11.64,1.24-1.63,1.77-3.91-.98-2.74-3.24,1.37-7,5.09-10.07,7.06-.71.45-1.67.39-2.31.76-2.29,1.34-9.66,8.73-7.89,11.53ZM230.05,316.33c-1.75-1.11-3.04,1.01-3.91,1.44-1.23.6-2.47.68-3.64,1.63s-1.46,2.94-3.48,2.51c-.84-.18-1.43-1.18-2.22-1.16-.43,0-7.42,2.52-8.08,2.89-5.67,3.21.74,10.18,5.02,8.53,1.22-.47,2.77-2.43,3.5-2.64,1.02-.29,2.14.16,3.2-.31,1.18-.52,3.1-3.59,4.16-4.63,3.23-3.17,2.62-1.34,4.94-6.03.16-.31,1.99-1.29.5-2.23ZM250.77,316.26l-28.25,13.58c-2.27,4,2.92,1.76,4.84,1,4.69-1.88,19.46-9.65,22.55-13.03.26-.28,1.28-1.16.87-1.55ZM318.27,320.75c-2.78.25-7.9,5.7-2.94,7.19s6.63-7.51,2.94-7.19ZM244.37,335.77c1.96-1.25,4.04-3.18,6.01-4.31,1.29-.74,7.82-3.32,8.09-3.77.92-1.48-1.43-6.54-3.75-5.98-3.3.8-5,4.59-7.51,6.59-5.96,4.75-23.63,12.6-31.16,15.4-2.7,1.01-7.3.96-8.95,3.78-1.56,2.67.33,4.25,3.03,4.39,7.64.38,27.39-11.73,34.24-16.1ZM277.56,328.12c.45.47-2,2.51-.93,3.76,1.52,1.78,4.74-.88,4.86,1.25.19,3.19-1.96,3.44-3.51,4.86-1.93,1.77.55,3.62,3.05,2.17,3.29-1.9,1.52-4.15,2.64-5.7.56-.78,2.77-1.37,3.7-2.01,1.11-.77,5.45-4.09,5.12-5.41-.59-2.37-4.71,2.82-6.17,1.77s.92-3.45.93-4.86c.02-4.4-5.23,1.82-6.4,1.83-.81,0-2.27-1.44-3.15-1.51s-2.06,1.19-3.4.82c-.58-.16-.07-2.68-2.24-1.82-2.77,1.1-2.06,3.11.65,3.33-.8,1.97-3.35,2.36-3.86,4.49-.22.9.08,1.86-.32,2.76-1.52,3.44-13.1,6.78-16.77,8.27s-5.14,2.14-8.95,3.35c-1.74.55-4.05,3.51-6.57,4.01-1.76.35-3.01-1.09-4.93-.59-1.06.28-2.95,2.17-4.28,2.76-2.33,1.02-6.37.99-7.65,3.33-.77,1.42-.95,3.71,1.17,3.42,1.03-.14,5.26-2.94,6.93-3.66,5.47-2.38,11.72-4.16,17.47-5.82,2.63-.76,12.26-3.82,14.14-2.97.28.12,1,.91.89,1.08-.09.13-2.46,1.52-2.61,1.57-3.26,1.09-2.11.77-4.7,2.33s-4.56,1.02-7.21,1.58c-5.06,1.08-11.57,4.38-16.69,6.16-3.06,1.06-7.51,1.63-10.13,3.05-.35.19-2.12,1.76-2.15,1.9-.09.34-.08,2.24,0,2.32,1.05,1.08,12.28-3.71,14.39-4.28,4.28-1.17,8.28-1.38,12.71-3.1,6.38-2.48,12.39-5.31,19.02-7.77,1.11-.41,2.65-1.68,3.41-1.87,1.51-.37,4.43.64,4.08-1.65-.02-.1-1.73-.68-.89-1.53.46-.47,7.7,1.64,4.83-1.1-1.29-1.23-6.9-1.16-6.95-3.45s5.94-2.27,7.16-4.24c.9-1.45-1.13-1.87-1.46-2.95-.75-2.49,4.34-6.27,4.75-5.83ZM293.96,330.02c-.24.16-.39.78-.86,1.09-1.23.84-9,4.97-5.88,6.9.66.41,1.1.21,1.75-.03,2.7-.99,6.26-5.7,9.27-6.99,1.21-4.38-2.15-2.41-4.28-.98ZM303.36,332.58c-.88.18-13.2,9.5-14.39,10.67-1.81,1.8-1.29,3.29,1.2,2.54,4.1-3.03,9.4-5.86,13.08-9.34,1.42-1.34,3.55-4.59.11-3.87ZM206.7,335.65c-3.27.28-3.79,7.92,1.22,6.95,3.15-.61.56-7.11-1.22-6.95ZM316.18,337.38c-.3-.45-2.95-.55-3.66-.45-3.22.45-5.14,3.11-7.57,4.73s-11.77,6.99-12.59,8.96c-.71,1.71-.67,3.66,1.58,3.33,2-.3,6.06-5.17,8.27-6.68,2.48-1.7,13.21-6.48,13.94-8.47.13-.34.21-1.15.04-1.41ZM279.49,359.04c1.58-1.53,5.05-3.47,5.47-5.77.32-1.73-1.18-3.13-1.28-4.74-.07-1.17,1.41-4.76-1-4.1-.6.16-1.06,1.12-1.62,1.46-.69.42-2.44.78-2.61,1.36-.55,1.88,4.89,3.21,1.93,6.75-4.31,5.16-14.03,8.07-18.6,12.15-.59.53-1.64,1.14-1.36,2.15.53,1.92,5.51-1.74,6.59-2.19,2.31-.97,4.88-1.11,6.91-1.88,1.71-.65,4.14-3.81,5.56-5.19ZM273.13,352.31c-.23-.32-5.85-1.61-6.1-1.36-.91.91,3.28,4.34,4.95,3.89.89-.24,1.63-1.85,1.15-2.53ZM229.64,374.63c.91-1.34-2.47-3.34-.57-4.3,5.19-2.27,10.18-5,15.56-6.84,2.8-.96,17.78-4.54,18.67-5.93.78-1.22-1.07-2.59-2.21-2.61-.57,0-3.29.89-4.09,1.15-5.6,1.84-10.83,4.92-16.35,6.93-5.61,2.05-12.56,2.98-17.71,6.01-5.6,3.3.39,2.55,1.89,3.22,1,.45,1.51,2.52,2.51,2.8.47.13,2.12-.18,2.29-.43ZM286.18,365.72c1.2-1.03,8.46-7.55,8.45-8.4,0-.32-.98-1.1-1.47-1.1-.7,0-1.42,1.03-2.29,1.23-1.37.32-2.9-.1-4.28.11-2.12.33-5.42,4.78-7.27,6.35s-4.61,3.47-6.74,4.68c-4.37,2.49-8.15,2.52-10.61,7.4-3.48,6.9-.85,8.15,5.15,4.37s13.85-10.17,19.06-14.65ZM333.34,358c-.04-.05-1.06-.34-1.31-.24-1.31.54-4.32,6.86-5.51,8.54-3.31,4.66-8.8,8.76-7.63,15.6.26,1.55,1.72,2.29,1.74,3.96.03,2.32-2.46,7.19-2.98,9.78-.21,1.02-1.29,8.58-.98,8.9,1.65,1.69,4.31-5.83,4.59-6.61,1.87-5.17,1.63-8.33,2.63-13.18.59-2.89,3.5-7.91,4.65-11.16,1.25-3.52,2.07-7.23,3.29-10.77.32-.94,2.14-4.02,1.52-4.83ZM282.14,378.37c3.93-3.56,10.67-8.5,13.8-12.33,1.12-1.38,1.27-3.02-.69-3.59-2.51-.73-5.17,3.3-6.94,4.74-2.79,2.26-8.92,5.91-10.68,8.65-.49.77-.97,2.75-1.38,3.01-.54.36-1.7.16-2.52.55-1.6.76-7.22,5.06-7.97,6.52-.44.86-.7,3.44-.99,3.62-.66.42-3.04-.45-3.71.47-.46.64.37,1.8.19,2.77-.15.82-3.92,5.41.07,4.51,1.85-.41,6.52-6.31,8.31-7.94,4.09-3.73,8.42-7.29,12.51-11ZM246.43,373.29c1.02.93,7.23-.82,8.53-1.67,1.72-1.13,3.91-7.21.85-7.49-2.06-.19-13.71,4.6-14.21,6.43-.73,2.62,3.44.88,4.07,1.06.78.22.55,1.48.76,1.67ZM225.49,394.2c3.99-3.35,7.72-7.13,11.88-10.3,1.21-.92,7.82-4.8,8.07-5.56.77-2.31-1.93-2.11-3.48-1.7-3.56.93-14.42,9.03-17.76,11.66-2.33,1.84-12.95,10.55-12.97,12.95-.01,1.51,2.1,1.73,3.27,1.51,1.45-.26,9.25-7.11,10.99-8.57ZM244.36,389.79c3.69-2.98,7.62-5.68,11.25-8.74,1.45-1.45.19-4.28-1.63-4.53s-15.57,9.61-17.87,11.41c-6.67,5.21-23.38,20.02-26.97,27.04-1.44,2.81-2.02,7.56,2.31,4.51,5.21-3.67,12.43-12.62,17.78-17.36,4.73-4.19,10.18-8.34,15.13-12.33ZM315.35,385.2c-.61-.68,1.54-2.95,1.25-4.06-.17-.65-2.05-2.25-2.77-2.54-1.9-.77-3.49.05-5.06,1.16-2.53,1.79-11.34,13.27-13.14,16.29-.74,1.25-.98,3.2-1.82,4.33s-2.48,1.47-3.1,2.29c-1.04,1.39-.84,3.89-1.72,5.19-.8,1.18-2.15.91-3.13,1.7-1.22.98-1.51,3.31-2.4,4.19-.7.7-2.15.82-3.02,1.81-1.19,1.35-.89,3.64-1.77,4.41-.55.48-1.65-.25-2.57,0-2.11.59-2.3,6.09-3.07,7.29s-3.53,1.45-2.88,4.63c1.01,4.95,6.01-.48,7.62-2.31,2.43-2.77,2.88-4.78,4.4-7.46.25-.44,2.3-1.6,3.04-2.67s.96-2.58,1.76-3.52c.89-1.04,2.7-1.41,3.62-2.31,1.96-1.93,3.7-5.11,6.29-7.55,5.05-4.73,7.52-8.33,11.86-13.62.46-.56,4.38-6.86,5.28-5.92.79.83-6.31,9.8-7.13,11.1-2.77,4.41-7.09,17.03-10.92,19.39-.51.31-1.3.26-1.95.68-1.26.8-5.06,7.74-5.57,9.36-.93,2.91-.01,2.66.77,4.7.51,1.33.4,4.52,2.87,2.46l25.8-46.28c.6-2.52-2.25-2.43-2.54-2.75ZM256.04,385.22c-.47-.34-3.47,1.47-4.09,1.84-11.37,6.83-37.65,32.98-44.32,44.42-1.37,2.35-3.21,5.89,1.42,4.5,2.83-.86,15.93-14.94,19.3-18.03,6.12-5.61,12.89-11.47,19.37-16.65,2.55-2.04,12.1-6.65,6.53-10.18l-17.77,14.32c-.59,0-1.35.26-1.09-.66.2-.7,5.96-6.13,7.02-7.04,4.05-3.48,9.05-6.63,13.19-10.09.68-.34.84-2.11.43-2.42ZM227.76,440.4c9.09-10.45,17.32-21.73,28.96-29.68,2.02-2.16.63-6.16-2.42-4.17-9.39,6.14-20.37,18.77-27.7,27.33-4.81,5.62-9.02,11.94-14.25,17.25-1.25,1.35-3.72-.85-4.41-.05-1.94,2.25-1.59,8.49,2.4,6.82,4.49-1.88,13.84-13.4,17.42-17.5ZM301.84,433.87c.29.29.95.5,1.35.44,1.17-.16,7.4-6.59,8.28-7.93,2.43-3.68,3.04-8.57,4.42-12.71.23-.68,1.01-.97,1.19-1.88.22-1.09.22-4.36-1.14-4.59-1.19-.2-1.92,2.8-3.01,3.51-.72.48-2.66.68-2.82.92-.32.49.07,4.3-.05,5.43-.2,1.85-2.56,6.5-3.59,8.27-.97,1.67-4.63,5.88-4.98,6.91-.19.57-.08,1.2.34,1.62ZM215.35,462.69c-3.7,3.51-2.5,4.89-3.24,8.84-.19,1.02-4.63,6.21,1.26,4.33,5.07-1.62,12.25-13.41,15.7-17.68,6.07-7.54,12.87-15.64,19.5-22.67,3.56-3.77,8.68-7.74,11.87-11.41,1.94-2.24,1.51-3.71-1.09-5.06-9.42,8.42-18.05,18.08-26.36,27.68-4.26,4.92-8.24,10.64-12.52,15.47-.44.49-2.79,3.02-3.07,3.21-.33.23-1.17.49-1.32,0,2.09-1.74,1.85-5.15-.72-2.7ZM261.93,430.64c.56-.62,1.59-.61,1.11-2.11-.29-.92-1.06-.67-1.73-.51-5.59,1.36-19.77,22.13-23.97,27.45-5.87,7.43-13.09,14.79-18.11,22.74-.96,1.53-5.81,9.43-4.47,10.68.05.05,1.22.08,1.48.02.39-.1,3.27-6.62,4.45-6.6.07,0,.94.83.97,1.08.07.71-4.5,7.56-4.96,9-.19,1.84.62,2.33,2.26,1.35.64-.38,5.29-5.9,5.91-6.83,1.13-1.69,2.02-4.27,3.16-6.06,10.86-17.07,23.77-31.76,36.77-47.17.91-2.05-.69-2.47-2.4-1.48-3.62,2.09-8.4,9.62-11.19,12.97-2.62,3.16-5.31,6.26-8.33,9.02-.25-.9.33-1.2.64-1.77,4.67-8.31,12.09-14.81,18.42-21.78ZM210.07,445.55c-1.54,1.55-1.17,3.03,1.19,2.29.9-.28,5.11-4.54,5.91-5.52,2.08-2.51,2.94-5.3,4.98-7.77.2-2.88-2.75-.21-3.68.72-2.39,2.39-3.73,5.21-5.31,7.89-.53.9-2.45,1.74-3.09,2.38ZM268.61,449.19c1-1.41,4.72-6.46,4.9-7.64.33-2.11-.36-2.88-2.43-1.97-2.88,1.26-7.67,9.03-9.79,11.73-1.43.74-3.87,5.87-5.46,5.5-.53-.12-.77-.86-.61-1.46.45-1.71,3.6-1.38,3.45-3.56-.04-.53-1.06-2.4-1.45-2.76-1.9-1.73-2.63,2.32-3.2,3.35-.37.67-1.29,1.13-1.62,1.9-.49,1.18-.08,2.65-.54,3.41-.53.89-5.16,2.41-5.74,3.51-.68,1.29,1.23,2.37.49,3.52-.15.23-3.67,1.88-4.66,2.83-5.42,5.21-18.32,32.18-21.04,40.02-.61,1.77-3.13,9.14.97,8.03.98-.26,4.02-6.04,4.96-7.37,5.67-8.02,12.06-15.55,17.69-23.61,8.19-11.73,15.8-23.85,24.07-35.45ZM271.25,497.51c8.28-13.2,19.1-30.59,25.52-44.55,1.12-2.43,4.63-9.18,1.58-10.99-1.33-.78-3.03-.35-4.32.33-2.39,1.26-1.41,2.25-2.2,3.95-1.04,2.25-5.88,2.33-6.58,3.52-.44.76-.03,1.91-.31,2.76-.22.68-1.65,4.11-1.95,4.59-.65,1.06-2.14,1.09-2.49,2-.43,1.11.55,2.48.07,3.31-.08.14-2.01,1.19-2.56,2.05-.45.7-.4,1.54-.85,2.22-.51.77-2.22,1.65-2.23,2.62-.01,1.31,1.68.92,2.47,1.51.53.39.66,1.52,1.36,1.75.76.24,2.18-.58,2.34-.4.72.85-.64,4.48-2.38,3.94-.97-.3-.93-2.8-1.19-3.01-.12-.1-2.92-.61-3.01-.5-.18.22.28,2-.19,2.66-.58.82-2.64-.09-3.32,1.07-.28,1.26,1.5.39,1.76.65.1.11-.07,1.33,0,1.75-1.21.42-.75-.74-.9-.84-.92-.59-.78.56-1.17.84-1.53,1.07-3.4,1.66-4.52,3.29-.29.42-2.59,4.59-2.64,4.87-.29,1.51,1.76,1.48,1.76,2.16,0,.42-5.32,4.57-6.14,5.81-3.18,4.84-5.52,12.82-8.03,18.24-1.14,2.45-8.16,14.92-7.79,16.35.46,1.79,2.98-1.02,3.51-1.74,1.25-1.72,1.21-4.01,3.76-4.58,2.96-.67,2.6.4,5.01-2.46,5.17-6.1,11.37-16.36,15.66-23.21ZM232.76,441.89c-.06-.05-1.5-.09-1.69.08-.13.12-.07.95-.52,1.43-.57.62-1.88,1.08-2.47,1.72-.38.41-2.79,3.35-2.78,3.58,0,.06.74.83.87.9,1.08.56,2.67-2.09,3.5-2.67.25-.65,3.32-4.84,3.08-5.04ZM244.34,496.51c-2.55,5.1-5.28,10.38-7.4,15.66-.7,1.73-5.11,13.9-4.95,14.66.07.35.75,1.07,1.05,1.13.54.1,5.36-4.84,6.1-5.68,13.56-15.37,20.09-34.65,30.15-51.99,2.43-4.19,6.45-8.31,8.51-12.13,1.05-1.94,1.07-3.7,1.78-5.25.92-2.01,4.56-7.3,3.82-9.13-1.98-4.89-10.42,1.15-8.47,3.82.45.62,2.14-2.95,3.3-1.33.48.66-2.25,6.68-2.82,7.2-1.18,1.07-3.04-.14-1.82-2.16.16-.27,3.53-3.21,1.12-3.71-.21-.04-3.16,2.61-3.31,2.83-.72,1.07-.53,2.61-1.11,3.73-.49.95-2.24,1.87-2.59,2.68-.44,1-.08,2.1-.71,3.24-.55.99-2.06,1.34-2.38,2.02-.44.93,0,2.07-.44,3.08-.53,1.21-3.01,2.21-3.68,3.35-1.16,1.97-1.45,5.27-2.3,6.93-.65,1.26-3.59,2.4-4.97,4.26-2.48,3.35-6.83,12.73-8.87,16.82ZM298.21,458.14l-1.7-.41c-3.95,6.57-6.71,13.88-10.43,20.56-3.04,5.46-6.91,10.51-9.91,16.01-.86,1.58-4.58,8.47-4.25,9.64,1.05,3.84,5.78-2.55,6.62-3.76l19.67-42.04Z"/>
        <path d="M349.6,14.04c.45.46-1.51,10.38-1.87,11.96-3.94,16.99-10.95,32.37-15.67,48.9-1.2,4.2-1.76,9.93-3.31,13.83-.48,1.22-1.98,2.92-2.65,4.38-.58,1.27-.61,4.38-2.26,4.3-.74-.04-1.1-.99-1.9-.61s-5.45,10.38-7.71,5.96c-1.4-2.74,5.92-5.38,5-8.46-.98-3.26-3.5,1.16-4.18,1.38-1.64.51-2.37-1-3.33-.77-2.66.65-1.04,4.94-1.84,6.11-1.61,2.33-1.93-2.12-2.39-2.46-3.07-2.23-3.27,6.94-4.73,7.29-5.05,1.22-.02-8.49-4.98-6.84-5.24,1.75-5.18,4.44-7.7,8.12-1.11,1.63-3.83,3.74-4.77,5.33-.69,1.16-.95,3.76-1.52,4.53-.4.54-1.57.04-2.05.68-.23.31-.64,3.1-.61,3.7.1,1.97,3.44,6.8,1.76,8-2.15,1.54-2.69-2.73-3.62-3.91-1.55-.98-3.41-5.37-4.97-5.4-.45,0-3.28,1.37-3.29-.39,0-.97,4.53-2.89,5.48-3.74s1.44-2.2,2.43-2.84c1.2-.77,2.27-.52,3.39-1.01,3.1-1.35,4.52-7.26,6.34-9.92,1.14-1.66,4.3-3.47,3.52-5.81-.23-.71-.85-.65-1.08-1.18-1.07-2.42-4.91-14.72-4.7-16.76.08-.8,2.6-7.36,3.15-8.31.33-.57,1.65-2.37,2.09-2.74.65-.55,1.56-.63,2.03-1.04,1.72-1.49-.4-9.43,1.12-11.62,1.87-2.71,2.04,1.33,2.18,1.47s1.51-.15,2.43.43c1.46.93,3.46,4.73,4.39,6.15,2.07,3.16,3.19-4.06,5.3-5.18,2.63-1.39,4.88,1.24,3.26,2.37-.85.59-2.77-.23-3.64,1.63-2.43,8.34-3.75,17.32-2.98,26.05.15,1.7.61,4.12,2.54,4.52,2.35.48,9.73-4.16,11.71-3.78.91.17,2.43,5.76,4.33,1.11,1.51-3.7-1.53-4.01-1.36-5.7,1.95-4.37,2.79-9.65,5.13-13.81.71-1.27,3.39-3.95,3.52-4.41.3-1.09-.36-1.94-.33-2.93.06-1.85,1.56-6.48-2.68-4.44-3.23,1.56-6.3,25.68-9.04,26.54-1.35.42-1.56-.86-1.52-1.92.16-3.61,2.38-14.99,3.61-18.39.3-.84,2.16-1.36,2.93-2.34.36-.47,3.91-6.76,4.12-7.31.72-1.94,1.03-5.68,1.76-7.91.56-1.72,3.42-3.17,4.21-.88.64,1.84-3.91,3.85-3.37,5.96.14.55,1.3,1.64,1.91,1.64,1.79,0,1.98-2.9,2.61-4,1.63-2.86,3.7-7.24,4.45-10.48.41-1.77-.07-3.56.39-5.32.71-2.69,4.29-8.64,5.52-12.05.46-1.27,1.7-6.89,1.96-7.26.35-.51,1.36-.61,1.53-.44ZM301.22,66.37c-.26-.15-1.47-.16-1.65-.01-.34.27-1.37,7.7-1.38,8.54-.01,1.3,1.21,8.67.89,8.98-.06.06-1.68.05-1.74,0-.17-.17-.42-3.93-.66-4.84-.37-1.46-2.08-6.73-3.06-7.49-2.16-1.66-3.44,2.82-3.66,4.31-.54,3.67,1.47,15.7,2.94,19.25,2.04,4.95,4.8-1.21,6.75-1.68,1.73-.42,3.46.9,4.26-1.88-.36-4.71-1.87-9.34-2.19-14.04-.12-1.76.39-10.59-.51-11.13Z"/>
        <path d="M350.43,5.2c-1.7,1.42-1.73-2-3.31-2.03-2.8-.06-2.95,5.49-3.92,7.32-.47.88-2.12,1.73-2.33,2.54-.27,1.06,1.68,2.7.14,5.37-.8,1.39-1.85.84-2.7,1.25-3.13,1.52.32,6.5-.99,7.36-.62.4-2.23-.09-2.65.86-.54,1.23,1.01,1.25,1.57,1.93,1.5,1.83.05,2.71-.51,4.4-.26.8-.01,2.15-.38,2.69-.33.49-1.87.55-2,.42s.59-3.07-1.49-2.58c-1.21.28-2.25,6.02-3.35,4.77-1.17-1.34,5.73-28.72,6.61-32.49,1.93-.62,1.67,2.91,3.81,1.87,1.21-.59,2.47-4.74,3.84-6.29.73-.83,3.39-2.63,4.41-2.6,1.74.05,4.87,3.84,3.24,5.2Z"/>
        <path d="M261.31,232.79c-.15.17-2.5.18-3,2.52-1.07,5.08,5.28.49,5.18,3.81-.09,3.12-2.68,1.28-4.15,1.12-2.27-.24-5.46,1.48-7.06,3.07-1.39,1.38-1.31,3.62-3.25,4.22-1.52.47-8.07.38-6.42-2.02.46-.67,2.67-.71,2.83-.9.12-.15.11-1.64.05-1.71-.45-.47-3.75.44-4.58.41-2.06-.08-3.34-1.65-6.66-1.32-.87.09-3.04,1.13-3.26.91-.32-.32-.15-1.05.55-1.43,4.72-2.53,9.26.49,13.73-4.27.92-.98,1.38-2.44,2.42-3.29.33-.27,6.19-3.44,6.55-3.55,1.63-.5,8.55.7,7.05,2.43ZM254.28,234.55c-.19-.21-5.05,2.02-5.19,2.27-1.65,2.79,3.87,1.81,4.96-.52.19-.4.4-1.55.23-1.74Z"/>
        <path d="M244.26,178.41c-.24.14-.31,1.11-.96,1.45-.61.32-1.51.19-2.2.44s-1.52.99-2.05,1.02c-2.11.14-2.23-2.82-2.39-2.95-.23-.19-1.57.07-2.27-.14-1.01-.32-1.88-1.52-3.22-1.65-2.63-.25-9.21,2.72-10.95,2.46-.44-.06-1.19-.87-1.08-1.36.13-.56,2.73-1.24,3.41-1.42,5.86-1.58,14.3-1.29,19.53-3.31,1.19-.46,3.1-2.66,4.49-2.54,1.17.1,2.02,2.19,3.63,2.56,3.23.74,4.52-1.75,8.23-1.19,2.16.32,5.43,2.59,1.8,3.06-3.4.44-2.62,1.24-4.06,1.67-1.23.36-2.24-.39-2.93-.26-.66.12-1.09,1.34-1.89,1.57-1.34.4-6.13.07-7.08.62Z"/>
        <path d="M266.95,188.05c-2.4-1.52-5.29,2.21-7.21,2.56s-1.52-1.48-.4-2.63c1.56-1.6,7.96-5.53,10.1-5.73,3.87-.36,3.73,2.41,5.48,2.93.84.25,3.48-.66,3.52,1.69,0,.3-1.57,5.24-1.81,5.66-.57,1.05-2.06,2.25-3.26,2.45-3.76.62-4.39-1.25-7.47-2.59-.99-1.54,1.28-1.69,1.52-2.51.1-.36-.26-1.71-.47-1.84Z"/>
        <path d="M134.37,277.15c-.34.29-7.91.09-8.95-.05-.71-.09-6.13-1.84-6.56-2.11-1.21-.75-.06-2.42-.33-3.27-.08-.26-2.31-1.38-1.29-2.47.23-.24,5.89.4,6.71.54,1.13.2,2.12,1.02,3.2,1.19,1.78.27,7.36-.55,8.05,2.09.31,1.21-1.04,1.89-1.2,2.66-.12.59.47,1.34.37,1.43Z"/>
        <path d="M239.88,209.38c-.22-.14.07-.89-.31-.75-1.2.46-1.54,2.78-2.26,3.03-1.2.42-2.79-.91-4.12-.2-1.09.58-.24,2.19-2.41,2.43-1.56.18.29-1.8-.85-2.67-.81-.62-3.13,1-3.32-1.07-.02-.21.71-.21.88-.52,1.78-3.28,6.83-11.31,11.15-7.1,2.51,2.45-4.28,3.41-1.73,5.24,2.22,1.59,3.12-1.23,4.9-1.35,3.3-.21.74,4.66-1.92,2.95Z"/>
        <path d="M176.8,201.86c.83-.53,2.14-1.55,3.24-1.83,3.45-.86,6.61,4.24,3.94,7.04-1.91-.08-7.08,3.75-8.11,3.76-1.66.02-1.38-2.14-1.74-3.09-.31-.83-1.23-1.35-1.13-2.38.13-1.4,2.75-2.82,3.8-3.5Z"/>
        <path d="M102.15,266.48c1.12-1.98,2.91-7.49,4.99-8.44,1.49-.68,2.79,1.15,2.63,2.61-.14,1.2-2.32,3.78-2.14,4.81.26,1.47,3.61.77,3.01,2.69-.38,1.21-3.16.28-3.98.85-.6.42-.27,2.9-1.07,2.88-.08,0-.6-.73-1.33-.86-1.3-.23-3.25.39-3.96-1.34-.63-1.55,1.54-2.65,1.85-3.2Z"/>
        <path d="M147.44,235.32c-1.32,1.3-5.71.08-7.58.08-2.25,0-8.78,2.04-8.15-1.94.17-1.06,3.8-2.67,4.74-2.79,1.38-.17,2.27,1.25,3.79,1.21,1.96-.05,3.89-1.94,5.3-1.75,1.68.23,3.08,4.02,1.9,5.18Z"/>
        <path d="M332.8,240.6c-1.06,1.05-2.06-.71-3.39-.13-1.93.84-1.47,3.14-2.2,3.98-.14.16-3.54,1.94-3.76,1.96-2.15.21-6.17-1.59-4.62-4.19.11-.19,1.87-1.89,2.01-1.95,1.28-.55-.23,3.42,2.2,2.24,2.24-2.86,3.56-9.32,8.07-5.49.81.69,2.63,2.67,1.69,3.59Z"/>
        <path d="M87.25,240.33c2.26-.32,1.47,1.58.08,2.74-1.15.96-10.35,6.79-11.2,6.85-4.31.28.9-5.7,2.48-6.78,2.27-1.56,3.76-1.24,6.15-1.76.87-.19,1.83-.96,2.49-1.05Z"/>
        <path d="M290.23,203.88c.4.23,2.23,3.15,2.06,3.92-.4,1.76-4.75,3.91-6.5,3.38-.89-.27-1.6-1.81-2.62-2.22-.96-.39-1.86-.17-2.64-.43-1.79-.59-1.54-2.35.74-2.09,1.45.17,1.91,1.4,2.76,1.66,4.59,1.37.92-2.34,1.01-2.76.07-.36,4.81-1.69,5.19-1.46Z"/>
        <path d="M277.14,195.91c.07-.1,1.56-.2,1.96-.9.53-.91,1.14-4,1.79-5.23.98-1.84,2.65-1.1,4.24-.35,3.28,1.54-.36,3.16-.5,3.68-.26.97,1.21,1.84-.51,2.99-.28.19-5.59,1.61-5.9,1.59-.9-.07-1.5-1.14-1.09-1.77Z"/>
        <path d="M157.2,220.06c.06.06.06,1.68,0,1.75-.26.28-2.34-.7-2.63-.44-.2.18-.23,3.02-.7,3.1-2.89.49-6.68-.25-6.81-3.77-.19-5.27,5.72-1.56,7.91-.83.62.2,2.14.12,2.22.2Z"/>
        <path d="M305.55,106.79c1.67-.46,3.02,1.15,1.64,2.55l-10.07,9.25c-.63-.48-.72-.66-.59-1.44.1-.68,8.37-10.17,9.03-10.35Z"/>
        <path d="M322.81,204.24c.07.08.08,1.9-.06,2.14-.48.78-3.68-.32-3.34,1.97.14.93,1.47,1.62.12,2.47-.89-1.04-3.93-.58-4.43-1.27-.25-.34.87-5.38,1.1-5.55.41-.29,6.39,0,6.62.25Z"/>
        <path d="M292.59,225.85c1.04-1.78,6.98-2.02,6.95.57,0,.25-2.49,3.99-2.84,4.2-3.43,2.06-4.93-3.37-4.11-4.77Z"/>
        <path d="M240.55,234.44c-3.12,3.32-7.74-2.25-5.35-5.15,1.81-2.19,8.17,2.15,5.35,5.15Z"/>
        <path d="M312.27,69.17c.17-.76,3.04-3.18,3.73-3.3.73-.13.71.02.67.66-.05.96-2.26,10.36-2.69,10.71-.27.22-1.23-.03-1.71.05.35-2.35-.47-5.97,0-8.13Z"/>
        <path d="M209.43,235.47c.15.18.14,1.39-.01,1.65-.38.63-2.92.34-3.64.53-1.18.31-5.53,2.68-5.94.14-.03-.19,1.8-3.12,2.02-3.19.49-.18,7.34.58,7.58.87Z"/>
        <path d="M117.09,225.63c-1.33,1.55-8.71,6.25-7.25,1.32.36-1.2,5.96-3.89,6.66-3.76,1.17.23,1.3,1.6.58,2.44Z"/>
        <path d="M155.08,232.29c-.22-.14-.52-1.28-.32-1.69,1.27-2.5,9.38-3.14,7.51.44-.64,1.23-6.36,1.78-7.19,1.25Z"/>
        <path d="M152.15,274.09c.28,0,1.75,1.36,2.4,1.55,1.19.36,3.54-.19,3.93,1.38s-2.91,3.21-4.34,2.56c-1.15-.53-3.7-5.45-1.99-5.49Z"/>
        <path d="M98.21,236.8c.53-.14.92-.09,1.24.38.41,1.79,4.23,4.05,1.43,5.38-4.02,1.91-5.77-4.94-2.67-5.77Z"/>
        <path d="M296.83,104.59c.39.24,1.2,7.19.53,7.65-2.41,1.67-2.05-2.97-3.45-4.09-.44-1.72.89-4.79,2.92-3.56Z"/>
        <path d="M153.75,248.99c-1.21-1.91,3.28-6.78,4.99-3.01,1.32,2.92-4.19,4.27-4.99,3.01Z"/>
        <path d="M95.71,269.69c-.65-.61,3.42-7.27,4.6-7.02,1.42.3-.89,4.6-1.33,5.25-.51.75-2.46,2.53-3.27,1.78Z"/>
        <path d="M196.19,235.05c.69-.17,1.86.67,1.86,1.03,0,.33-3.8,4.49-4.81,3.98-2.96-1.48,1.31-4.61,2.95-5.02Z"/>
        <path d="M271.3,203.91c2.56,2.59-3.04,4.99-3.84,3.84-.52-.76,1.6-6.1,3.84-3.84Z"/>
        <path d="M305.67,44.79c.33.32-.89,8.76-2.41,8.78-1.66.01.4-4.75.54-5.6.13-.78,0-3.07.12-3.18.06-.06,1.69-.06,1.75,0Z"/>
        <path d="M133.99,246.03c.22-.39,6.1-4,6.52-2.03.34,1.59-8.6,5.76-6.52,2.03Z"/>
        <path d="M158.41,204.3c4.02-.55-.4,5.5-2.98,3.7-1.94-1.35,1.74-3.53,2.98-3.7Z"/>
        <path d="M276.68,61.04c.25.25.7,6.79.44,7.03-.06.05-1.33.08-1.53.02-.58-.18-.92-6.8-.67-7.05.06-.06,1.69-.06,1.75,0Z"/>
        <path d="M267.42,228.8c-.54.79-5.82.61-5.19-1.46.67-2.22,6.91-1.07,5.19,1.46Z"/>
        <path d="M277.48,203.72c-.07.11-2.02,1.35-2.25,1.34-1.89-.15-2.92-2.66-.73-3.67,1.87-.86,3.86.82,2.98,2.33Z"/>
        <path d="M270.1,113.31c-1.67,1.3-3.84-4.8-4.08-5.81-.49-2.1.54-2.28,1.57-.25.31.6,2.77,5.85,2.51,6.05Z"/>
        <path d="M63.26,256.57c.39-.69,4.9-2.32,5.21-.7.4,2.09-6.78,3.48-5.21.7Z"/>
        <path d="M278.77,289.98c.76-.16,1.13-.15,1.85.15.44.18,4.06,2.55,3.97,3.06-.25,1.43-2.53-1.01-3.31-1.08-1-.1-2.65.92-3.3.64-1.56-.68-.9-2.42.78-2.77Z"/>
        <path d="M231.44,279.79c-.18.12-3.79-1.62-3.91-1.8-.73-1.14,1.47-1.9,2.49-2.07,2.95-.51,1.77,3.63,1.42,3.87Z"/>
        <path d="M463.37,186.67c-.19.2-4.68-.04-5.51-.02-1.04.03-1.95.49-3,.44-1.88-.09-4.82-1.87-6.21-1.78-1.52.09-3.3,1.47-5.69,1.38-1.8-.06-5.01-1.07-2.41-2.84,2.26-1.53,5.36-2.27,7.84-4.02,2.25-1.59,3.91-4.51,6.87-4.99,3.13-.5,17.03,2.09,17.69,5.53.71,3.69-8.54,2.97-9.18,3.42-.81.57-.23,2.7-.41,2.89ZM459.3,176.63c-3.87,1.07,1.11,5.86,2.55,3.01.79-1.56-.95-3.45-2.55-3.01Z"/>
        <path d="M433.84,183.7c2.1,2.04-1.31,3.09-3.2,3-6.04-.28.85-5.28,3.2-3Z"/>
        <path d="M272.73,456.82c.83.75-4.1,8.64-4.91,9.8-.6.87-2.61,3.91-3.21,4.3-1.55,1.02-1.98-.73-.67-2.35,1.7-2.09,3.46-4.77,4.78-7.2.58-1.06.83-3.46,1.77-4.27.47-.41,2.08-.43,2.24-.28Z"/>
        <path d="M249.45,465.61c.28.3-2.21,4.76-2.63,5.37-1.18,1.74-4.55,6.38-5.93,7.81-.33.34-1.55,1.77-1.98,1.31-.68-.72,4.18-5.94,4.75-6.89,1.05-1.75,1.51-4.01,2.52-5.39.35-.48,2.84-2.66,3.27-2.22Z"/>
        <path d="M264.26,346.86c-1.07.9-4.49.68-3.83-1.32.72-2.18,7.82-2.01,3.83,1.32Z"/>
      </g>
    </g>
  </g>
</svg>